<?xml version="1.0" encoding="utf-8"?>
<!-- Generator: Adobe Illustrator 16.0.0, SVG Export Plug-In . SVG Version: 6.00 Build 0)  -->
<!DOCTYPE svg PUBLIC "-//W3C//DTD SVG 1.1//EN" "http://www.w3.org/Graphics/SVG/1.1/DTD/svg11.dtd">
<svg version="1.1" id="Layer_1" xmlns="http://www.w3.org/2000/svg" xmlns:xlink="http://www.w3.org/1999/xlink" x="0px" y="0px"
	 width="3500px" height="1067px" viewBox="0 0 3500 1067" enable-background="new 0 0 3500 1067" xml:space="preserve">
<g>
	<path fill="#00AEEF" d="M1178.5,458.554c2.424,0,4.444,2.02,4.444,4.444v140.594c0,13.333,10.504,23.837,23.836,23.837h53.329
		c13.332,0,24.24-10.504,24.24-23.837V462.998c0-2.424,2.02-4.444,4.444-4.444h30.704v143.423c0,32.725-26.664,58.984-59.389,58.984
		h-53.329c-32.725,0-58.985-26.26-58.985-58.984V458.554H1178.5z"/>
	<path fill="#00AEEF" d="M1540.081,517.943v143.018h-30.705c-2.424,0-4.444-2.02-4.444-4.443V515.923
		c0-12.928-10.504-23.836-23.836-23.836h-73.125c-2.424,0-4.444,2.02-4.444,4.444v159.987c0,2.424-2.02,4.443-4.444,4.443h-30.705
		V485.218c0-14.544,11.716-26.26,26.261-26.26h86.458C1513.82,458.958,1540.081,485.218,1540.081,517.943z"/>
	<path fill="#00AEEF" d="M1699.251,458.958v29.088c0,2.424-2.02,4.444-4.444,4.444h-50.5c-10.908,0-18.584,8.484-19.393,18.18
		v150.29h-30.705c-2.424,0-4.444-2.02-4.444-4.443v-197.56h30.705c2.424,0,4.444,1.616,4.444,4.04v8.888
		c4.848-6.868,14.948-12.928,27.473-12.928H1699.251z"/>
	<path fill="#00AEEF" d="M1732.782,601.977v-85.649c0-37.573,26.261-57.369,58.985-57.369h54.137
		c32.725,0,58.985,19.796,58.985,57.369v46.46c0,6.869-0.809,12.525-10.505,12.525h-110.697c-6.464,0-12.12-2.828-15.757-7.677
		v35.956c0,13.333,10.505,23.837,23.837,23.837h100.193c2.424,0,4.444,2.021,4.444,4.444v29.088h-104.638
		C1759.043,660.961,1732.782,634.701,1732.782,601.977z M1791.768,492.086c-13.332,0-23.837,7.676-23.837,23.836v21.816
		c0,2.425,1.616,4.04,4.04,4.444h94.134c2.424,0,4.444-2.02,4.444-4.444v-21.816c0-16.16-7.676-23.836-23.433-23.836H1791.768z"/>
	<path fill="#00AEEF" d="M1948.514,539.355v-27.069c0-32.724,22.625-53.329,55.35-53.329h110.697v28.685
		c0,2.424-2.02,4.444-4.443,4.444h-106.254c-13.333,0-20.2,6.464-20.2,19.796v11.716c0,2.02,1.615,3.636,3.636,4.444l124.838,29.492
		c6.464,1.213,10.908,6.869,10.908,13.332v35.957c0,35.148-25.049,54.137-57.772,54.137h-114.334v-28.684
		c0-2.424,2.02-4.444,4.443-4.444h109.891c13.332,0,25.048-7.677,25.048-21.009v-18.988c0-2.02-1.616-3.636-3.636-4.04
		l-126.858-31.108C1953.362,551.476,1948.514,545.819,1948.514,539.355z"/>
	<path fill="#00AEEF" d="M2272.521,631.873v29.088h-40.805c-32.321,0-58.985-26.26-58.985-58.984V361.188h30.704
		c2.425,0,4.444,2.02,4.444,4.444v101.002c2.021-4.444,6.464-7.272,11.716-7.272h42.825v29.089c0,2.424-2.021,4.04-4.444,4.04
		h-50.097v111.101c0,13.333,10.504,23.837,23.837,23.837h36.36C2270.501,627.429,2272.521,629.449,2272.521,631.873z"/>
	<path fill="#00AEEF" d="M2418.365,458.958v29.088c0,2.424-2.021,4.444-4.444,4.444h-50.501c-10.908,0-18.584,8.484-19.393,18.18
		v150.29h-30.704c-2.424,0-4.444-2.02-4.444-4.443v-197.56h30.705c2.424,0,4.443,1.616,4.443,4.04v8.888
		c4.849-6.868,14.948-12.928,27.473-12.928H2418.365z"/>
	<path fill="#00AEEF" d="M2491.486,372.904v33.129h-30.704c-2.424,0-4.444-2.02-4.444-4.444V368.46h30.705
		C2489.467,368.46,2491.486,370.48,2491.486,372.904z M2491.486,462.998v197.963h-30.704c-2.424,0-4.444-2.02-4.444-4.443v-197.56
		h30.705C2489.467,458.958,2491.486,460.574,2491.486,462.998z"/>
	<path fill="#00AEEF" d="M2574.303,516.731v86.861c0,13.333,10.504,23.837,23.836,23.837h71.51c2.424,0,4.443,2.021,4.443,4.444
		v29.088h-75.953c-32.32,0-58.984-26.26-58.984-58.984v-83.629c0-32.725,26.664-58.985,58.984-58.985h75.953v29.089
		c0,2.424-2.02,4.04-4.443,4.04h-71.51C2584.807,492.491,2574.303,503.399,2574.303,516.731z"/>
	<path fill="#00AEEF" d="M2819.934,631.873v29.088h-40.805c-32.321,0-58.985-26.26-58.985-58.984V361.188h30.704
		c2.425,0,4.444,2.02,4.444,4.444v101.002c2.021-4.444,6.464-7.272,11.716-7.272h42.825v29.089c0,2.424-2.021,4.04-4.444,4.04
		h-50.097v111.101c0,13.333,10.504,23.837,23.837,23.837h36.36C2817.913,627.429,2819.934,629.449,2819.934,631.873z"/>
	<path fill="#00AEEF" d="M2856.291,655.305v-32.32h31.917c3.231,0,5.656,2.828,5.656,6.061v31.916h-31.917
		C2858.715,660.961,2856.291,658.133,2856.291,655.305z"/>
	<path fill="#A7A9AC" d="M3188.785,517.943v143.018h-30.704c-2.424,0-4.444-2.02-4.444-4.443V515.923
		c0-12.928-10.504-23.836-23.836-23.836h-52.521c4.04,2.424,7.272,6.464,7.272,11.313v157.562h-30.705
		c-2.424,0-4.443-2.02-4.443-4.443V496.531c0-2.424-2.021-4.444-4.444-4.444h-61.005c-2.021,0-3.637,1.616-4.04,3.636v160.795
		c0,2.424-2.021,4.443-4.444,4.443h-30.704V485.218c0-14.544,11.716-26.26,26.26-26.26h158.775
		C3162.525,458.958,3188.785,485.218,3188.785,517.943z"/>
	<path fill="#A7A9AC" d="M3236.853,601.977v-85.649c0-37.573,26.261-57.369,58.985-57.369h54.137
		c32.725,0,58.985,19.796,58.985,57.369v46.46c0,6.869-0.809,12.525-10.505,12.525h-110.697c-6.464,0-12.12-2.828-15.757-7.677
		v35.956c0,13.333,10.505,23.837,23.837,23.837h100.193c2.424,0,4.444,2.021,4.444,4.444v29.088h-104.638
		C3263.113,660.961,3236.853,634.701,3236.853,601.977z M3295.838,492.086c-13.332,0-23.837,7.676-23.837,23.836v21.816
		c0,2.425,1.616,4.04,4.04,4.444h94.134c2.424,0,4.444-2.02,4.444-4.444v-21.816c0-16.16-7.676-23.836-23.433-23.836H3295.838z"/>
</g>
<circle fill="#808285" cx="533.6" cy="533.6" r="533.6"/>
<path fill="none" d="M533.6,533.6"/>
<line fill="none" x1="533.6" y1="533.6" x2="0" y2="533.6"/>
<path stroke="#000000" stroke-miterlimit="10" d="M75.038,992.163"/>
<path stroke="#000000" stroke-miterlimit="10" d="M533.6,533.6"/>
<path fill="#00AEEF" d="M990.274,535.489c0-252.218-204.46-456.674-456.674-456.674c-252.214,0-456.674,204.456-456.674,456.674
	c0,252.213,204.46,456.674,456.674,456.674C785.813,992.163,990.274,787.702,990.274,535.489z"/>
<line fill="#FFFFFF" stroke="#FFFFFF" stroke-width="46" stroke-linecap="round" stroke-linejoin="round" stroke-miterlimit="10" x1="531.711" y1="533.6" x2="261.501" y2="263.389"/>
<line fill="#FFFFFF" stroke="#FFFFFF" stroke-width="46" stroke-linecap="round" stroke-linejoin="round" stroke-miterlimit="10" x1="531.711" y1="533.6" x2="801.927" y2="263.389"/>
<line fill="#FFFFFF" stroke="#FFFFFF" stroke-width="46" stroke-linecap="round" stroke-linejoin="round" stroke-miterlimit="10" x1="531.711" y1="535.489" x2="801.927" y2="805.705"/>
<line fill="#FFFFFF" stroke="#FFFFFF" stroke-width="46" stroke-linecap="round" stroke-linejoin="round" stroke-miterlimit="10" x1="263.385" y1="803.815" x2="533.6" y2="533.6"/>
<line fill="#FFFFFF" stroke="#FFFFFF" stroke-width="23" stroke-linecap="round" stroke-miterlimit="10" x1="833.75" y1="453.254" x2="833.75" y2="615.836"/>
<path fill="none" stroke="#000000" stroke-miterlimit="10" d="M531.711,535.489"/>
<path fill="#FFFFFF" stroke="#FFFFFF" stroke-miterlimit="10" d="M630.87,534.992c0-54.491-44.171-98.661-98.662-98.661
	c-54.487,0-98.658,44.17-98.658,98.661c0,54.487,44.171,98.657,98.658,98.657C586.699,633.649,630.87,589.479,630.87,534.992z"/>
<path fill="#00AEEF" d="M532.208,534.992"/>
<path fill="#00AEEF" d="M462.446,604.754"/>
<circle fill="#007AA0" cx="532.672" cy="534.528" r="70.226"/>
<g>
</g>
<g>
</g>
<g>
</g>
<g>
</g>
<g>
</g>
<g>
</g>
</svg>
